<svg preserveAspectRatio="none" width="100%" height="100%" viewBox="0 0 480 909.745" fill="none" xmlns="http://www.w3.org/2000/svg">
  <g transform="translate(8, 8)">
    <path d="M426.015 0C426.042 10.6998 430.303 20.9555 437.871 28.5234C444.872 35.5247 454.174 39.6939 464 40.3008V853.514C454.175 854.121 444.873 858.29 437.872 865.291C430.321 872.843 426.062 883.07 426.017 893.745H41.4951C41.4498 883.07 37.1912 872.843 29.6396 865.291C22.0476 857.699 11.7504 853.434 1.01367 853.434C0.675366 853.434 0.337362 853.438 0 853.446V40.3672C0.337321 40.3756 0.675407 40.3809 1.01367 40.3809C11.7504 40.3808 22.0476 36.1155 29.6396 28.5234C37.2075 20.9555 41.469 10.6998 41.4961 0H426.015Z" fill="#000000"/>
  </g>
</svg>
